<?xml version="1.0" encoding="UTF-8"?> <svg xmlns="http://www.w3.org/2000/svg" width="381" height="73" viewBox="0 0 381 73" fill="none"> <path d="M32.9844 15C30.9844 15 29.2177 15.4333 27.6844 16.3C26.151 17.1 24.9844 18 24.1844 19C23.3844 20 22.3177 20.9333 20.9844 21.8C19.651 22.6 18.151 23 16.4844 23C14.2844 23 12.3844 22.2667 10.7844 20.8C9.25104 19.2667 8.48438 17.5 8.48438 15.5C8.48438 12.1 10.7844 8.66666 15.3844 5.19999C20.051 1.73333 25.751 -3.8147e-06 32.4844 -3.8147e-06C39.0177 -3.8147e-06 44.551 2.03333 49.0844 6.1C53.6844 10.1667 55.9844 14.8 55.9844 20C55.9844 22.2667 55.6177 24.3333 54.8844 26.2C54.2177 28.0667 53.3844 29.5333 52.3844 30.6C51.451 31.6 50.4844 32.4667 49.4844 33.2C48.551 33.9333 47.751 34.4 47.0844 34.6L45.9844 35V36C46.251 36.0667 46.6177 36.2 47.0844 36.4C47.6177 36.5333 48.5177 37 49.7844 37.8C51.051 38.5333 52.151 39.4333 53.0844 40.5C54.0844 41.5667 54.9844 43.1333 55.7844 45.2C56.5844 47.2 56.9844 49.4667 56.9844 52C56.9844 57.6 54.6844 62.5 50.0844 66.7C45.4844 70.9 39.6177 73 32.4844 73C25.6844 73 19.8177 71.2333 14.8844 67.7C9.95104 64.1667 7.48438 60.7667 7.48438 57.5C7.48438 55.5 8.25104 53.7667 9.78438 52.3C11.3844 50.7667 13.2844 50 15.4844 50C17.151 50 18.651 50.4333 19.9844 51.3C21.3177 52.1 22.3844 53 23.1844 54C23.9844 55 25.151 55.9333 26.6844 56.8C28.2177 57.6 29.9844 58 31.9844 58C34.451 58 36.4844 57.2667 38.0844 55.8C39.6844 54.3333 40.4844 52.5667 40.4844 50.5C40.4844 48.3667 39.5844 46.6 37.7844 45.2C36.051 43.7333 33.6177 43 30.4844 43C28.2844 43 26.3844 42.2667 24.7844 40.8C23.251 39.2667 22.4844 37.5 22.4844 35.5C22.4844 33.5 23.251 31.7667 24.7844 30.3C26.3844 28.7667 28.2844 28 30.4844 28C33.351 28 35.551 27.4 37.0844 26.2C38.6844 24.9333 39.4844 23.3667 39.4844 21.5C39.4844 19.7667 38.8177 18.2667 37.4844 17C36.2177 15.6667 34.7177 15 32.9844 15ZM67.9531 63.5V9.5C67.9531 7.5 68.7198 5.76666 70.2531 4.29999C71.8531 2.76666 73.7531 1.99999 75.9531 1.99999C78.1531 1.99999 80.0198 2.76666 81.5531 4.29999C83.1531 5.76666 83.9531 7.5 83.9531 9.5V28H104.953V9.5C104.953 7.5 105.72 5.76666 107.253 4.29999C108.853 2.76666 110.753 1.99999 112.953 1.99999C115.153 1.99999 117.02 2.76666 118.553 4.29999C120.153 5.76666 120.953 7.5 120.953 9.5V63.5C120.953 65.5 120.153 67.2667 118.553 68.8C117.02 70.2667 115.153 71 112.953 71C110.753 71 108.853 70.2667 107.253 68.8C105.72 67.2667 104.953 65.5 104.953 63.5V43H83.9531V63.5C83.9531 65.5 83.1531 67.2667 81.5531 68.8C80.0198 70.2667 78.1531 71 75.9531 71C73.7531 71 71.8531 70.2667 70.2531 68.8C68.7198 67.2667 67.9531 65.5 67.9531 63.5ZM170.945 65L168.945 59H147.945L145.945 65C144.545 69 141.879 71 137.945 71C135.679 71 133.779 70.2333 132.245 68.7C130.712 67.1667 129.945 65.2667 129.945 63C129.945 62.2667 130.045 61.4 130.245 60.4C130.512 59.4 130.779 58.6 131.045 58L131.445 57L149.445 7.49999C151.045 3.16666 154.045 0.999995 158.445 0.999995C162.845 0.999995 165.845 3.16666 167.445 7.49999L185.445 57C186.445 59.3333 186.945 61.3333 186.945 63C186.945 65.2667 186.179 67.1667 184.645 68.7C183.112 70.2333 181.212 71 178.945 71C175.012 71 172.345 69 170.945 65ZM164.445 45L158.945 28H157.945L152.445 45H164.445ZM195.98 63.5V9.5C195.98 7.5 196.747 5.76666 198.28 4.29999C199.88 2.76666 201.78 1.99999 203.98 1.99999C206.18 1.99999 208.047 2.76666 209.58 4.29999C211.18 5.76666 211.98 7.5 211.98 9.5V28H232.98V9.5C232.98 7.5 233.747 5.76666 235.28 4.29999C236.88 2.76666 238.78 1.99999 240.98 1.99999C243.18 1.99999 245.047 2.76666 246.58 4.29999C248.18 5.76666 248.98 7.5 248.98 9.5V63.5C248.98 65.5 248.18 67.2667 246.58 68.8C245.047 70.2667 243.18 71 240.98 71C238.78 71 236.88 70.2667 235.28 68.8C233.747 67.2667 232.98 65.5 232.98 63.5V43H211.98V63.5C211.98 65.5 211.18 67.2667 209.58 68.8C208.047 70.2667 206.18 71 203.98 71C201.78 71 199.88 70.2667 198.28 68.8C196.747 67.2667 195.98 65.5 195.98 63.5ZM262.973 63.5V9.5C262.973 7.5 263.739 5.76666 265.273 4.29999C266.873 2.76666 268.773 1.99999 270.973 1.99999C273.173 1.99999 275.039 2.76666 276.573 4.29999C278.173 5.76666 278.973 7.5 278.973 9.5V39H279.973L299.473 9.5C301.339 6.63333 302.973 4.66666 304.373 3.6C305.773 2.53333 307.639 1.99999 309.973 1.99999C312.173 1.99999 314.039 2.76666 315.573 4.29999C317.173 5.76666 317.973 7.5 317.973 9.5V63.5C317.973 65.5 317.173 67.2667 315.573 68.8C314.039 70.2667 312.173 71 309.973 71C307.773 71 305.873 70.2667 304.273 68.8C302.739 67.2667 301.973 65.5 301.973 63.5V34H300.973L281.473 63.5C279.539 66.3667 277.873 68.3333 276.473 69.4C275.139 70.4667 273.306 71 270.973 71C268.773 71 266.873 70.2667 265.273 68.8C263.739 67.2667 262.973 65.5 262.973 63.5ZM364.516 63.5V46H355.016L344.016 67C343.882 67.2667 343.649 67.6333 343.316 68.1C342.982 68.5667 342.216 69.1667 341.016 69.9C339.816 70.6333 338.482 71 337.016 71C334.816 71 332.916 70.2667 331.316 68.8C329.782 67.2667 329.016 65.5 329.016 63.5C329.016 62.4333 329.182 61.3667 329.516 60.3C329.849 59.2333 330.182 58.4 330.516 57.8L331.016 57L339.516 41.5C339.249 41.3667 338.916 41.2 338.516 41C338.116 40.7333 337.382 40.1 336.316 39.1C335.316 38.1 334.416 37 333.616 35.8C332.816 34.6 332.082 32.9333 331.416 30.8C330.816 28.6667 330.516 26.4 330.516 24C330.516 17.0667 332.716 11.6667 337.116 7.8C341.516 3.93333 347.982 1.99999 356.516 1.99999H372.516C374.716 1.99999 376.582 2.76666 378.116 4.29999C379.716 5.76666 380.516 7.5 380.516 9.5V63.5C380.516 65.5 379.716 67.2667 378.116 68.8C376.582 70.2667 374.716 71 372.516 71C370.316 71 368.416 70.2667 366.816 68.8C365.282 67.2667 364.516 65.5 364.516 63.5ZM356.516 31H364.516V17H356.516C353.649 17 351.416 17.6667 349.816 19C348.282 20.2667 347.516 21.9333 347.516 24C347.516 26.0667 348.282 27.7667 349.816 29.1C351.416 30.3667 353.649 31 356.516 31Z" fill="#5C1682"></path> <path d="M25.9844 15C23.9844 15 22.2177 15.4333 20.6844 16.3C19.151 17.1 17.9844 18 17.1844 19C16.3844 20 15.3177 20.9333 13.9844 21.8C12.651 22.6 11.151 23 9.48438 23C7.28438 23 5.38438 22.2667 3.78438 20.8C2.25104 19.2667 1.48438 17.5 1.48438 15.5C1.48438 12.1 3.78438 8.66666 8.38438 5.19999C13.051 1.73333 18.751 -3.8147e-06 25.4844 -3.8147e-06C32.0177 -3.8147e-06 37.551 2.03333 42.0844 6.1C46.6844 10.1667 48.9844 14.8 48.9844 20C48.9844 22.2667 48.6177 24.3333 47.8844 26.2C47.2177 28.0667 46.3844 29.5333 45.3844 30.6C44.451 31.6 43.4844 32.4667 42.4844 33.2C41.551 33.9333 40.751 34.4 40.0844 34.6L38.9844 35V36C39.251 36.0667 39.6177 36.2 40.0844 36.4C40.6177 36.5333 41.5177 37 42.7844 37.8C44.051 38.5333 45.151 39.4333 46.0844 40.5C47.0844 41.5667 47.9844 43.1333 48.7844 45.2C49.5844 47.2 49.9844 49.4667 49.9844 52C49.9844 57.6 47.6844 62.5 43.0844 66.7C38.4844 70.9 32.6177 73 25.4844 73C18.6844 73 12.8177 71.2333 7.88438 67.7C2.95104 64.1667 0.484375 60.7667 0.484375 57.5C0.484375 55.5 1.25104 53.7667 2.78438 52.3C4.38438 50.7667 6.28438 50 8.48438 50C10.151 50 11.651 50.4333 12.9844 51.3C14.3177 52.1 15.3844 53 16.1844 54C16.9844 55 18.151 55.9333 19.6844 56.8C21.2177 57.6 22.9844 58 24.9844 58C27.451 58 29.4844 57.2667 31.0844 55.8C32.6844 54.3333 33.4844 52.5667 33.4844 50.5C33.4844 48.3667 32.5844 46.6 30.7844 45.2C29.051 43.7333 26.6177 43 23.4844 43C21.2844 43 19.3844 42.2667 17.7844 40.8C16.251 39.2667 15.4844 37.5 15.4844 35.5C15.4844 33.5 16.251 31.7667 17.7844 30.3C19.3844 28.7667 21.2844 28 23.4844 28C26.351 28 28.551 27.4 30.0844 26.2C31.6844 24.9333 32.4844 23.3667 32.4844 21.5C32.4844 19.7667 31.8177 18.2667 30.4844 17C29.2177 15.6667 27.7177 15 25.9844 15ZM60.9531 63.5V9.5C60.9531 7.5 61.7198 5.76666 63.2531 4.29999C64.8531 2.76666 66.7531 1.99999 68.9531 1.99999C71.1531 1.99999 73.0198 2.76666 74.5531 4.29999C76.1531 5.76666 76.9531 7.5 76.9531 9.5V28H97.9531V9.5C97.9531 7.5 98.7198 5.76666 100.253 4.29999C101.853 2.76666 103.753 1.99999 105.953 1.99999C108.153 1.99999 110.02 2.76666 111.553 4.29999C113.153 5.76666 113.953 7.5 113.953 9.5V63.5C113.953 65.5 113.153 67.2667 111.553 68.8C110.02 70.2667 108.153 71 105.953 71C103.753 71 101.853 70.2667 100.253 68.8C98.7198 67.2667 97.9531 65.5 97.9531 63.5V43H76.9531V63.5C76.9531 65.5 76.1531 67.2667 74.5531 68.8C73.0198 70.2667 71.1531 71 68.9531 71C66.7531 71 64.8531 70.2667 63.2531 68.8C61.7198 67.2667 60.9531 65.5 60.9531 63.5ZM163.945 65L161.945 59H140.945L138.945 65C137.545 69 134.879 71 130.945 71C128.679 71 126.779 70.2333 125.245 68.7C123.712 67.1667 122.945 65.2667 122.945 63C122.945 62.2667 123.045 61.4 123.245 60.4C123.512 59.4 123.779 58.6 124.045 58L124.445 57L142.445 7.49999C144.045 3.16666 147.045 0.999995 151.445 0.999995C155.845 0.999995 158.845 3.16666 160.445 7.49999L178.445 57C179.445 59.3333 179.945 61.3333 179.945 63C179.945 65.2667 179.179 67.1667 177.645 68.7C176.112 70.2333 174.212 71 171.945 71C168.012 71 165.345 69 163.945 65ZM157.445 45L151.945 28H150.945L145.445 45H157.445ZM188.98 63.5V9.5C188.98 7.5 189.747 5.76666 191.28 4.29999C192.88 2.76666 194.78 1.99999 196.98 1.99999C199.18 1.99999 201.047 2.76666 202.58 4.29999C204.18 5.76666 204.98 7.5 204.98 9.5V28H225.98V9.5C225.98 7.5 226.747 5.76666 228.28 4.29999C229.88 2.76666 231.78 1.99999 233.98 1.99999C236.18 1.99999 238.047 2.76666 239.58 4.29999C241.18 5.76666 241.98 7.5 241.98 9.5V63.5C241.98 65.5 241.18 67.2667 239.58 68.8C238.047 70.2667 236.18 71 233.98 71C231.78 71 229.88 70.2667 228.28 68.8C226.747 67.2667 225.98 65.5 225.98 63.5V43H204.98V63.5C204.98 65.5 204.18 67.2667 202.58 68.8C201.047 70.2667 199.18 71 196.98 71C194.78 71 192.88 70.2667 191.28 68.8C189.747 67.2667 188.98 65.5 188.98 63.5ZM255.973 63.5V9.5C255.973 7.5 256.739 5.76666 258.273 4.29999C259.873 2.76666 261.773 1.99999 263.973 1.99999C266.173 1.99999 268.039 2.76666 269.573 4.29999C271.173 5.76666 271.973 7.5 271.973 9.5V39H272.973L292.473 9.5C294.339 6.63333 295.973 4.66666 297.373 3.6C298.773 2.53333 300.639 1.99999 302.973 1.99999C305.173 1.99999 307.039 2.76666 308.573 4.29999C310.173 5.76666 310.973 7.5 310.973 9.5V63.5C310.973 65.5 310.173 67.2667 308.573 68.8C307.039 70.2667 305.173 71 302.973 71C300.773 71 298.873 70.2667 297.273 68.8C295.739 67.2667 294.973 65.5 294.973 63.5V34H293.973L274.473 63.5C272.539 66.3667 270.873 68.3333 269.473 69.4C268.139 70.4667 266.306 71 263.973 71C261.773 71 259.873 70.2667 258.273 68.8C256.739 67.2667 255.973 65.5 255.973 63.5ZM357.516 63.5V46H348.016L337.016 67C336.882 67.2667 336.649 67.6333 336.316 68.1C335.982 68.5667 335.216 69.1667 334.016 69.9C332.816 70.6333 331.482 71 330.016 71C327.816 71 325.916 70.2667 324.316 68.8C322.782 67.2667 322.016 65.5 322.016 63.5C322.016 62.4333 322.182 61.3667 322.516 60.3C322.849 59.2333 323.182 58.4 323.516 57.8L324.016 57L332.516 41.5C332.249 41.3667 331.916 41.2 331.516 41C331.116 40.7333 330.382 40.1 329.316 39.1C328.316 38.1 327.416 37 326.616 35.8C325.816 34.6 325.082 32.9333 324.416 30.8C323.816 28.6667 323.516 26.4 323.516 24C323.516 17.0667 325.716 11.6667 330.116 7.8C334.516 3.93333 340.982 1.99999 349.516 1.99999H365.516C367.716 1.99999 369.582 2.76666 371.116 4.29999C372.716 5.76666 373.516 7.5 373.516 9.5V63.5C373.516 65.5 372.716 67.2667 371.116 68.8C369.582 70.2667 367.716 71 365.516 71C363.316 71 361.416 70.2667 359.816 68.8C358.282 67.2667 357.516 65.5 357.516 63.5ZM349.516 31H357.516V17H349.516C346.649 17 344.416 17.6667 342.816 19C341.282 20.2667 340.516 21.9333 340.516 24C340.516 26.0667 341.282 27.7667 342.816 29.1C344.416 30.3667 346.649 31 349.516 31Z" fill="#C610E6"></path> </svg> 