<svg xmlns="http://www.w3.org/2000/svg" fill-rule="evenodd" viewBox="0 0 100 100">
    <path d="M49.996 100C22.43 100 .003 77.567.003 49.994.003 22.428 22.43 0 49.996 0c27.571 0 50.003 22.427 50.003 49.994C99.998 77.567 77.567 100 49.996 100zm0-97.088c-25.96 0-47.081 21.121-47.081 47.081 0 25.968 21.12 47.094 47.081 47.094 25.966 0 47.09-21.126 47.09-47.094 0-25.96-21.124-47.081-47.09-47.081z"/>
    <path d="M57.032 71.842a1.45 1.45 0 0 1-1.03-.427L35.6 51.013a1.456 1.456 0 0 1-.003-2.057l20.402-20.52a1.456 1.456 0 1 1 2.065 2.054L38.686 49.98l19.375 19.375a1.456 1.456 0 0 1-1.029 2.487z"/>
</svg>
