<svg xmlns="http://www.w3.org/2000/svg" fill-rule="evenodd" viewBox="0 0 100 100">
    <path d="M50.004 100C22.433 100 .002 77.573.002 50.006.002 22.433 22.433 0 50.004 0c27.567 0 49.994 22.433 49.994 50.006C99.999 77.572 77.572 100 50.004 100zm0-97.088c-25.965 0-47.089 21.126-47.089 47.093 0 25.961 21.124 47.082 47.089 47.082 25.961 0 47.082-21.121 47.082-47.082 0-25.967-21.12-47.093-47.082-47.093z"/>
    <path d="M42.967 71.992a1.456 1.456 0 0 1-1.033-2.483l19.379-19.49-19.376-19.376a1.456 1.456 0 0 1 2.059-2.06l20.403 20.403c.568.567.569 1.487.003 2.057L43.999 71.562c-.283.287-.657.43-1.032.43z"/>
</svg>
