<?xml version="1.0" encoding="UTF-8"?> <svg xmlns="http://www.w3.org/2000/svg" width="661" height="652" viewBox="0 0 661 652" fill="none"> <path d="M660.122 325.537C660.122 505.326 512.448 651.074 330.283 651.074C148.118 651.074 0.444519 505.326 0.444519 325.537C0.444519 145.748 148.118 0 330.283 0C512.448 0 660.122 145.748 660.122 325.537Z" fill="#5C1682"></path> <path d="M626.015 367.911L618.007 365.208L617.066 372.053L613.995 371.631L615.019 364.181L604.853 360.689L605.301 357.424L615.467 360.916L616.481 353.539L606.305 350.12L606.748 346.903L616.934 350.25L617.805 343.913L620.876 344.335L619.922 351.277L627.923 354.027L628.847 347.304L631.87 347.719L630.87 354.999L641.188 358.463L640.732 361.776L630.414 358.313L629.394 365.738L639.711 369.202L639.273 372.394L628.955 368.931L628.074 375.34L625.05 374.925L626.015 367.911ZM619.473 354.542L618.459 361.919L626.463 364.645L627.477 357.268L619.473 354.542Z" fill="white"></path> <path d="M588.252 425.016L589.668 421.114L605.48 426.853L611.877 409.227L596.064 403.489L597.48 399.588L631.032 411.764L629.617 415.665L615.319 410.477L608.923 428.102L623.22 433.291L621.804 437.192L588.252 425.016Z" fill="white"></path> <path d="M572.607 457.574L584.669 459.041L591.415 446.425L583.486 437.229L585.466 433.526L610.486 462.741L608.725 466.035L570.581 461.363L572.607 457.574ZM588.507 459.681L600.4 461.307C600.705 461.359 601.205 461.442 601.901 461.556C602.589 461.684 603.303 461.816 604.042 461.953C604.781 462.09 605.378 462.197 605.835 462.275C605.323 461.817 604.819 461.345 604.323 460.858C603.833 460.393 603.379 459.947 602.961 459.521C602.558 459.102 602.215 458.743 601.931 458.444L594.01 449.39L588.507 459.681Z" fill="white"></path> <path d="M551.548 489.508L553.971 486.169L565.945 494.859C566.51 492.917 567.124 491.129 567.785 489.498C568.446 487.866 569.389 486.207 570.612 484.521C572.591 481.795 574.737 480.154 577.05 479.6C579.366 479.069 581.703 479.659 584.061 481.37L595.521 489.688L593.083 493.047L582.097 485.074C580.503 483.917 578.992 483.464 577.563 483.714C576.139 483.987 574.728 485.085 573.332 487.008C572.157 488.628 571.25 490.182 570.612 491.671C569.978 493.181 569.364 494.928 568.77 496.91L582.858 507.135L580.435 510.474L551.548 489.508Z" fill="white"></path> <path d="M524.591 519.844L527.48 516.865L539.555 528.576L552.609 515.118L540.535 503.406L543.425 500.427L569.045 525.278L566.156 528.257L555.238 517.667L542.183 531.126L553.101 541.716L550.211 544.695L524.591 519.844Z" fill="white"></path> <path d="M536.782 557.703L533.696 560.058L521.182 543.656C520.708 543.035 520.196 542.351 519.647 541.603C519.107 540.869 518.583 540.142 518.076 539.424C517.569 538.705 517.117 538.047 516.722 537.448C516.313 536.859 516.003 536.399 515.792 536.069L515.637 536.187L517.993 572.038L514.364 574.807L492.713 546.43L495.799 544.075L508.164 560.283C508.688 560.968 509.228 561.703 509.784 562.486C510.351 563.282 510.897 564.053 511.424 564.797C511.939 565.551 512.393 566.228 512.789 566.827C513.194 567.439 513.509 567.905 513.733 568.225L513.908 568.092L511.482 532.11L515.131 529.326L536.782 557.703Z" fill="white"></path> <path d="M471.931 559.772L475.552 557.695L491.483 585.484L501.226 579.899L503.047 583.076L479.982 596.299L478.16 593.122L487.861 587.56L471.931 559.772Z" fill="white"></path> <path d="M434.541 578.171L452.823 570.38L466.817 603.216L448.535 611.007L447.099 607.638L461.563 601.474L457.036 590.85L443.403 596.66L441.986 593.336L455.619 587.526L450.441 575.376L435.977 581.54L434.541 578.171Z" fill="white"></path> <path d="M378.169 612.377C377.63 609.68 377.481 607.154 377.724 604.798C377.97 602.458 378.611 600.355 379.649 598.488C380.673 596.639 382.097 595.085 383.92 593.824C385.742 592.563 387.97 591.669 390.604 591.143C393.317 590.6 395.773 590.557 397.972 591.013C400.156 591.473 402.077 592.367 403.737 593.695C405.381 595.026 406.76 596.734 407.874 598.818C408.972 600.905 409.791 603.298 410.33 605.995C411.045 609.57 411.082 612.824 410.44 615.758C409.799 618.691 408.431 621.148 406.337 623.127C404.227 625.109 401.361 626.462 397.738 627.187C394.274 627.879 391.213 627.72 388.554 626.708C385.879 625.699 383.666 623.968 381.913 621.513C380.148 619.077 378.9 616.032 378.169 612.377ZM406.035 606.804C405.442 603.836 404.505 601.351 403.225 599.349C401.945 597.348 400.317 595.931 398.341 595.098C396.349 594.268 394.005 594.122 391.307 594.662C388.594 595.205 386.494 596.239 385.006 597.765C383.503 599.293 382.553 601.226 382.158 603.563C381.762 605.899 381.861 608.552 382.454 611.52C383.358 616.037 385.013 619.374 387.42 621.532C389.814 623.709 393.014 624.397 397.02 623.596C399.733 623.053 401.851 622.024 403.373 620.508C404.896 618.991 405.873 617.07 406.303 614.743C406.722 612.435 406.632 609.789 406.035 606.804Z" fill="white"></path> <path d="M362.942 596.613L365.115 632.24L344.183 633.517L343.96 629.862L360.75 628.838L360.048 617.336L354.516 617.673C351.088 617.882 348.382 617.623 346.397 616.897C344.412 616.17 342.984 615.075 342.112 613.611C341.224 612.149 340.719 610.419 340.597 608.421C340.397 605.139 341.224 602.52 343.077 600.564C344.916 598.626 348.101 597.519 352.634 597.242L362.942 596.613ZM359.016 600.424L353.29 600.773C350.073 600.969 347.833 601.669 346.569 602.871C345.29 604.09 344.721 605.853 344.861 608.16C344.96 609.769 345.362 611.024 346.07 611.927C346.777 612.829 347.842 613.441 349.263 613.762C350.685 614.083 352.534 614.174 354.808 614.035L359.828 613.729L359.016 600.424Z" fill="white"></path> <path d="M298.135 632.319L311.501 607.296C312.664 605.092 313.817 603.263 314.961 601.808C316.105 600.353 317.418 599.293 318.899 598.627C320.38 597.962 322.217 597.705 324.409 597.856C325.351 597.92 326.223 598.053 327.025 598.255C327.811 598.44 328.514 598.659 329.133 598.914L328.85 603.03C328.222 602.677 327.541 602.386 326.806 602.156C326.054 601.941 325.256 601.805 324.411 601.747C323.161 601.661 322.077 601.774 321.158 602.086C320.238 602.415 319.409 602.969 318.67 603.751C317.93 604.548 317.204 605.616 316.492 606.954L328.41 634.397L323.88 634.086L315.114 613.491C315 613.239 314.882 612.945 314.758 612.61C314.633 612.292 314.509 611.957 314.386 611.606C314.263 611.271 314.155 610.937 314.064 610.605L313.893 610.593C313.779 610.83 313.654 611.107 313.518 611.424C313.366 611.74 313.214 612.055 313.061 612.371C312.909 612.687 312.777 612.955 312.664 613.176L302.543 632.621L298.135 632.319Z" fill="white"></path> <path d="M267.029 591.053L271.075 591.862L268.173 606.369C270.175 606.072 272.055 605.884 273.814 605.804C275.572 605.725 277.473 605.889 279.516 606.297C282.82 606.958 285.206 608.224 286.674 610.094C288.123 611.978 288.562 614.348 287.991 617.205L285.214 631.09L281.144 630.276L283.806 616.965C284.192 615.034 283.974 613.472 283.15 612.278C282.307 611.097 280.721 610.273 278.391 609.807C276.428 609.414 274.637 609.239 273.019 609.28C271.381 609.335 269.538 609.505 267.489 609.793L264.075 626.862L260.029 626.053L267.029 591.053Z" fill="white"></path> <path d="M234.401 581.357L253.21 587.771L241.691 621.554L222.881 615.14L224.063 611.674L238.944 616.749L242.671 605.819L228.645 601.036L229.811 597.616L243.837 602.399L248.1 589.898L233.219 584.823L234.401 581.357Z" fill="white"></path> <path d="M198.561 565.474L202.283 567.31L194.843 582.396L211.659 590.689L219.099 575.603L222.821 577.439L207.034 609.451L203.312 607.615L210.039 593.974L193.223 585.681L186.495 599.322L182.773 597.486L198.561 565.474Z" fill="white"></path> <path d="M166.547 588.779L163.353 586.573L175.078 569.599C175.522 568.956 176.014 568.257 176.555 567.503C177.086 566.763 177.615 566.04 178.141 565.335C178.667 564.631 179.154 563.997 179.601 563.436C180.035 562.865 180.376 562.428 180.625 562.125L180.465 562.014L147.102 575.348L143.346 572.753L163.631 543.385L166.825 545.591L155.239 562.364C154.749 563.074 154.218 563.815 153.645 564.586C153.063 565.372 152.5 566.13 151.955 566.861C151.397 567.583 150.894 568.225 150.447 568.787C149.991 569.362 149.645 569.805 149.409 570.117L149.59 570.242L183.056 556.802L186.833 559.41L166.547 588.779Z" fill="white"></path> <path d="M138.046 521.731L152.736 535.115L128.698 561.5L114.008 548.116L116.474 545.409L128.096 555.998L135.874 547.461L124.919 537.481L127.352 534.81L138.307 544.79L147.202 535.027L135.58 524.438L138.046 521.731Z" fill="white"></path> <path d="M71.8338 499.201L99.5385 493.101C101.969 492.552 104.11 492.24 105.959 492.164C107.808 492.088 109.467 492.397 110.935 493.091C112.403 493.784 113.792 495.013 115.102 496.777C115.665 497.535 116.131 498.284 116.498 499.025C116.869 499.743 117.159 500.42 117.368 501.055L114.055 503.515C113.915 502.808 113.694 502.101 113.391 501.393C113.066 500.682 112.651 499.987 112.146 499.307C111.399 498.301 110.608 497.55 109.774 497.055C108.927 496.569 107.966 496.299 106.892 496.246C105.805 496.201 104.522 496.343 103.042 496.672L89.9279 523.564L87.2203 519.918L97.1776 499.872C97.296 499.622 97.4421 499.341 97.6161 499.029C97.7771 498.727 97.951 498.416 98.1381 498.094C98.3121 497.783 98.4958 497.484 98.6892 497.198L98.5873 497.061C98.3331 497.128 98.0413 497.213 97.712 497.316C97.3731 497.405 97.0341 497.495 96.6952 497.584C96.3562 497.674 96.0661 497.748 95.825 497.805L74.4686 502.749L71.8338 499.201Z" fill="white"></path> <path d="M74.508 471.353L65.8076 491.842L63.6317 487.773L72.3811 467.479L57.1385 475.63L55.2504 472.099L70.4931 463.948L48.7573 459.957L46.5814 455.888L68.4308 460.04L77.8152 438.604L80.0717 442.824L70.7729 463.799L86.726 455.268L88.6141 458.799L72.661 467.33L95.28 471.264L97.5365 475.484L74.508 471.353Z" fill="white"></path> <path d="M67.6767 412.238L74.4563 430.919L40.9041 443.095L34.1246 424.414L37.567 423.165L42.9307 437.944L53.7858 434.005L48.7303 420.075L52.1268 418.842L57.1823 432.772L69.598 428.267L64.2343 413.487L67.6767 412.238Z" fill="white"></path> <path d="M28.8174 366.064C31.2131 365.687 33.2267 366.128 34.8582 367.387C36.4736 368.649 37.6851 370.485 38.4926 372.895L38.6614 372.869C38.6242 369.909 39.2103 367.559 40.4196 365.82C41.6289 364.081 43.4072 363.027 45.7547 362.658C47.8288 362.332 49.7359 362.567 51.476 363.364C53.1974 364.148 54.6554 365.509 55.8499 367.446C57.0444 369.384 57.8844 371.896 58.37 374.983C58.671 376.896 58.8053 378.745 58.773 380.53C58.7567 382.312 58.5167 383.981 58.0529 385.537L54.2665 386.132C54.592 385.059 54.8406 383.916 55.0122 382.703C55.1839 381.49 55.2726 380.273 55.2784 379.053C55.2655 377.819 55.1731 376.656 55.0011 375.563C54.5004 372.379 53.51 370.063 52.0301 368.616C50.5316 367.154 48.6649 366.599 46.43 366.951C44.1308 367.313 42.6091 368.532 41.865 370.61C41.1022 372.674 40.9915 375.427 41.5327 378.867L42.3294 383.932L38.8806 384.475L38.1105 379.579C37.7463 377.263 37.1788 375.384 36.4079 373.94C35.621 372.498 34.6777 371.477 33.578 370.876C32.4598 370.261 31.2254 370.059 29.8748 370.272C28.0258 370.563 26.7091 371.462 25.9247 372.969C25.1377 374.46 24.9137 376.283 25.2526 378.438C25.6042 380.673 26.1844 382.476 26.9934 383.848C27.7863 385.223 28.7417 386.531 29.8596 387.772L27.373 390.19C26.5511 389.363 25.7732 388.398 25.0393 387.294C24.2894 386.193 23.6399 384.944 23.0907 383.548C22.5254 382.154 22.1113 380.621 21.8483 378.949C21.4562 376.457 21.504 374.299 21.9916 372.476C22.4631 370.655 23.2885 369.199 24.4679 368.107C25.6472 367.015 27.097 366.334 28.8174 366.064Z" fill="white"></path> <path d="M53.3885 327.247L42.1849 331.95L42.5765 346.251L54.02 350.31L54.1349 354.507L17.9262 341.529L17.824 337.795L53.2709 322.952L53.3885 327.247ZM38.5338 333.295L27.3974 337.777C27.1072 337.882 26.6317 338.058 25.9709 338.304C25.3096 338.534 24.6242 338.773 23.9145 339.02C23.2049 339.267 22.6324 339.47 22.1971 339.629C22.8687 339.773 23.5406 339.934 24.213 340.111C24.8687 340.272 25.4838 340.434 26.0581 340.598C26.6162 340.762 27.0922 340.903 27.4863 341.023L38.8532 344.961L38.5338 333.295Z" fill="white"></path> <path d="M17.7584 308.573L18.8615 298.526C19.3483 294.093 20.3775 290.833 21.9493 288.746C23.5211 286.659 25.9006 285.791 29.0878 286.141C30.463 286.292 31.6714 286.694 32.713 287.349C33.7401 287.986 34.5545 288.845 35.1563 289.926C35.758 291.007 36.1156 292.299 36.229 293.802L36.4716 293.828C36.8848 292.302 37.4808 290.975 38.2594 289.849C39.038 288.723 40.047 287.884 41.2865 287.332C42.526 286.781 44.0436 286.604 45.8395 286.801C48.0236 287.041 49.812 287.753 51.2048 288.937C52.5993 290.106 53.5836 291.654 54.1576 293.584C54.7155 295.512 54.8559 297.738 54.5788 300.262L53.2386 312.469L17.7584 308.573ZM33.4276 306.118L34.1736 299.323C34.5129 296.233 34.2378 294.041 33.3482 292.748C32.4603 291.439 31.0376 290.677 29.08 290.462C27.0576 290.24 25.5234 290.792 24.4772 292.118C23.4329 293.428 22.741 295.628 22.4017 298.718L21.7303 304.834L33.4276 306.118ZM36.8979 306.499L50.1727 307.957L50.9827 300.579C51.329 297.424 50.9594 295.124 49.8737 293.679C48.7718 292.231 47.1692 291.392 45.066 291.161C43.7231 291.014 42.5416 291.187 41.5213 291.681C40.5028 292.159 39.67 293.033 39.0228 294.305C38.3611 295.558 37.9096 297.285 37.668 299.486L36.8979 306.499Z" fill="white"></path> <path d="M60.0486 265.914L59.0675 269.972L27.9333 262.444L25.2941 273.36L21.7346 272.5L27.9826 246.657L31.5422 247.518L28.9144 258.386L60.0486 265.914Z" fill="white"></path> <path d="M35.2349 223.411C36.8718 219.106 38.9105 216.285 41.3512 214.95C43.7824 213.593 46.565 213.51 49.699 214.702C51.1139 215.24 52.3706 215.987 53.4693 216.945C54.5585 217.881 55.3933 219.052 55.9736 220.457C56.5388 221.856 56.7818 223.506 56.7027 225.409C56.6141 227.291 56.1071 229.449 55.1817 231.883L53.6374 235.945L66.7592 240.934L65.2843 244.813L31.9207 232.129L35.2349 223.411ZM38.4051 225.035L36.7046 229.507L50.3056 234.678L51.6851 231.05C52.4948 228.92 52.9405 227.061 53.022 225.472C53.1092 223.869 52.7791 222.516 52.0317 221.413C51.269 220.305 50.0357 219.427 48.3318 218.779C46.1106 217.934 44.1909 218.014 42.5729 219.019C40.9396 220.017 39.5503 222.022 38.4051 225.035Z" fill="white"></path> <path d="M88.2812 192.945L76.2249 191.434L69.4315 204.025L77.3259 213.25L75.332 216.945L50.4215 187.637L52.1952 184.35L90.3215 189.164L88.2812 192.945ZM72.3893 190.779L60.5018 189.109C60.1976 189.056 59.6977 188.971 59.0022 188.855C58.3145 188.724 57.6014 188.589 56.8629 188.449C56.1245 188.31 55.5271 188.2 55.0708 188.121C55.5808 188.581 56.083 189.055 56.5776 189.544C57.0655 190.011 57.5177 190.458 57.934 190.886C58.336 191.306 58.678 191.667 58.9599 191.967L66.8479 201.049L72.3893 190.779Z" fill="white"></path> <path d="M114.957 121.365L119.836 128.266L124.628 123.289L126.862 125.44L121.646 130.857L127.803 139.667L125.517 142.041L119.36 133.231L114.195 138.594L120.403 147.352L118.151 149.691L111.891 140.986L107.455 145.594L105.221 143.443L110.081 138.396L105.237 131.46L100.529 136.349L98.3307 134.232L103.428 128.939L97.1308 120.062L99.4508 117.652L105.748 126.529L110.947 121.13L104.65 112.253L106.885 109.932L113.182 118.809L117.67 114.149L119.868 116.265L114.957 121.365ZM112.368 136.022L117.533 130.658L112.671 123.74L107.506 129.103L112.368 136.022Z" fill="white"></path> <path d="M189.47 60.0322L202.693 83.2945L171.493 101.03L158.27 77.7672L161.793 75.7645L173.315 96.0341L183.609 90.1828L172.087 69.9131L175.632 67.8983L187.153 88.168L197.469 82.3046L185.947 62.0349L189.47 60.0322Z" fill="white"></path> <path d="M218.221 47.2817L222.375 45.6373L216.391 61.8961L233.086 70.1751L228.66 71.9274L212.359 63.7813L217.355 76.4025L213.564 77.9032L203.715 53.0239L207.506 51.5232L212.287 63.5997L218.221 47.2817Z" fill="white"></path> <path d="M259.576 48.0464C260.144 50.1691 260.376 52.1374 260.271 53.9512C260.167 55.7651 259.749 57.3847 259.018 58.8101C258.287 60.2354 257.265 61.4524 255.951 62.4609C254.649 63.4495 253.07 64.1919 251.214 64.6881C249.485 65.1507 247.817 65.2767 246.21 65.0661C244.616 64.8356 243.138 64.2873 241.777 63.4212C240.433 62.551 239.247 61.3603 238.219 59.8492C237.207 58.334 236.417 56.515 235.85 54.3923C235.093 51.5621 234.929 49.0282 235.358 46.7905C235.783 44.5371 236.745 42.654 238.245 41.141C239.755 39.6081 241.745 38.5116 244.213 37.8513C246.572 37.2205 248.773 37.1964 250.815 37.7788C252.874 38.3571 254.658 39.5143 256.167 41.2504C257.687 42.9666 258.824 45.232 259.576 48.0464ZM239.906 53.3074C240.461 55.3828 241.218 57.1096 242.176 58.4876C243.135 59.8655 244.299 60.8177 245.67 61.344C247.04 61.8704 248.63 61.8918 250.438 61.4081C252.231 60.9287 253.589 60.1189 254.514 58.9785C255.455 57.834 255.996 56.4255 256.139 54.7532C256.281 53.0808 256.075 51.2069 255.52 49.1314C254.969 47.0717 254.218 45.3685 253.269 44.022C252.315 42.6597 251.154 41.7233 249.788 41.2127C248.421 40.702 246.826 40.6906 245.002 41.1785C242.314 41.8976 240.578 43.3137 239.795 45.4269C239.028 47.5359 239.065 50.1627 239.906 53.3074Z" fill="white"></path> <path d="M295.497 55.0957L291.41 55.6587L288.221 32.5131L280.168 33.6225C280.42 37.843 280.502 41.4791 280.413 44.5308C280.338 47.5642 280.06 50.0753 279.578 52.0639C279.11 54.0342 278.413 55.535 277.487 56.5662C276.575 57.579 275.402 58.1842 273.967 58.3819C273.532 58.4419 273.117 58.4743 272.723 58.4793C272.33 58.4842 271.988 58.4491 271.699 58.374L271.279 55.3266C271.497 55.3622 271.722 55.3806 271.952 55.3818C272.198 55.3807 272.45 55.3624 272.708 55.3269C273.434 55.2269 274.054 54.8376 274.568 54.1588C275.096 53.4617 275.518 52.4671 275.833 51.1751C276.164 49.8808 276.394 48.2719 276.523 46.3482C276.651 44.4084 276.684 42.1448 276.623 39.5572C276.576 36.9513 276.443 34.0124 276.222 30.7404L291.846 28.5882L295.497 55.0957Z" fill="white"></path> <path d="M318.916 25.9618C322.105 25.9011 324.487 26.572 326.06 27.9745C327.633 29.3771 328.45 31.6488 328.51 34.7895L328.856 52.9746L325.903 53.0309L325.046 49.0914L324.851 49.0952C324.121 50.0858 323.355 50.9225 322.554 51.6052C321.753 52.2716 320.819 52.7859 319.751 53.1481C318.7 53.4937 317.401 53.6812 315.855 53.7107C314.228 53.7417 312.774 53.4845 311.494 52.9391C310.23 52.3934 309.221 51.5499 308.467 50.4084C307.729 49.2667 307.343 47.8089 307.309 46.0352C307.258 43.3664 308.277 41.2958 310.365 39.8235C312.453 38.3512 315.66 37.5087 319.987 37.296L324.596 37.0129L324.565 35.3774C324.521 33.0666 323.994 31.4569 322.984 30.5483C321.973 29.6396 320.565 29.2025 318.759 29.2369C317.359 29.2635 316.029 29.4924 314.767 29.9234C313.505 30.3544 312.31 30.8574 311.182 31.4324L309.878 28.3805C311.071 27.7392 312.444 27.1839 313.998 26.7148C315.552 26.2457 317.191 25.9947 318.916 25.9618ZM324.602 39.8697L320.529 40.1182C317.195 40.312 314.854 40.9019 313.505 41.8881C312.157 42.8742 311.499 44.246 311.533 46.0035C311.562 47.5332 312.047 48.6554 312.989 49.37C313.93 50.0846 315.166 50.4273 316.695 50.3982C319.071 50.3529 321.003 49.6568 322.492 48.3099C323.98 46.9629 324.699 44.9713 324.649 42.3351L324.602 39.8697Z" fill="white"></path> <path d="M382.255 24.7317C380.314 24.3967 378.508 24.4317 376.836 24.8367C375.183 25.2285 373.701 25.9637 372.392 27.0425C371.101 28.108 370.014 29.4811 369.129 31.1617C368.244 32.8423 367.609 34.7973 367.224 37.0267C366.715 39.9778 366.729 42.623 367.267 44.9621C367.823 47.2879 368.913 49.2021 370.536 50.7046C372.176 52.2099 374.375 53.2007 377.134 53.677C378.706 53.9483 380.203 54.0748 381.627 54.0563C383.069 54.0245 384.483 53.9217 385.867 53.7478L385.252 57.3084C383.886 57.568 382.478 57.6883 381.028 57.6692C379.575 57.6661 377.878 57.497 375.938 57.162C372.361 56.5445 369.497 55.2903 367.346 53.3994C365.214 51.4952 363.78 49.084 363.045 46.1657C362.326 43.2503 362.285 39.9481 362.922 36.2592C363.382 33.5967 364.17 31.2306 365.287 29.1606C366.423 27.0774 367.843 25.3571 369.548 23.9997C371.268 22.645 373.246 21.7146 375.48 21.2085C377.734 20.6891 380.215 20.6634 382.926 21.1313C384.706 21.4387 386.392 21.9114 387.983 22.5494C389.574 23.1875 390.979 23.9502 392.196 24.8377L389.962 28.0196C388.928 27.3125 387.769 26.6582 386.486 26.0568C385.221 25.442 383.811 25.0003 382.255 24.7317Z" fill="white"></path> <path d="M420.746 43.3173L412.294 40.8176L405.682 63.1757L401.842 62.0401L408.455 39.6821L400.12 37.2171L401.096 33.916L421.722 40.0162L420.746 43.3173Z" fill="white"></path> <path d="M431.41 42.6379L435.421 44.312L434.891 60.917C434.856 61.8898 434.81 62.8231 434.754 63.717C434.705 64.5959 434.638 65.4322 434.554 66.2259C434.469 67.0196 434.349 67.772 434.193 68.483L434.351 68.5488C434.875 67.8856 435.586 67.0272 436.484 65.9736C437.389 64.905 438.333 63.8264 439.317 62.7378L450.448 50.5852L454.481 52.2687L431.912 76.1024C430.708 77.3812 429.488 78.4239 428.252 79.2306C427.03 80.0436 425.754 80.5248 424.421 80.6742C423.083 80.8385 421.648 80.6009 420.116 79.9614C419.41 79.6667 418.805 79.3614 418.302 79.0456C417.793 78.7448 417.365 78.4603 417.018 78.1921L418.269 75.1957C418.568 75.4087 418.938 75.6425 419.378 75.8969C419.834 76.1576 420.317 76.3946 420.828 76.6078C421.759 76.9965 422.638 77.1517 423.464 77.0734C424.299 77.0163 425.106 76.7533 425.884 76.2843C426.661 75.8154 427.425 75.1905 428.174 74.4097L430.974 71.5045L431.41 42.6379Z" fill="white"></path> <path d="M482.376 66.4272L471.003 86.7807L474.349 88.6504L468.157 99.7329L464.725 97.8156L469.239 89.7381L452.7 80.4968L448.187 88.5743L444.798 86.6807L450.991 75.5982L452.824 76.6224C455.191 75.5216 457.431 74.1162 459.542 72.4061C461.654 70.696 463.612 68.7603 465.416 66.599C467.228 64.4234 468.84 62.1074 470.249 59.651L482.376 66.4272ZM477.373 67.3231L471.832 64.2268C470.545 66.2298 469.06 68.169 467.378 70.0445C465.711 71.928 463.942 73.6247 462.073 75.1346C460.212 76.6303 458.358 77.8129 456.511 78.6826L467.572 84.8633L477.373 67.3231Z" fill="white"></path> <path d="M501.455 77.9453L491.447 91.4656C491.254 91.7272 490.995 92.0625 490.672 92.4715C490.359 92.8673 490.015 93.291 489.64 93.7426C489.275 94.1811 488.92 94.6066 488.574 95.0189C488.251 95.4278 487.975 95.76 487.745 96.0153L512.974 86.4716L516.977 89.4347L501.057 110.942L498.016 108.69L507.777 95.5035C508.087 95.0849 508.49 94.5533 508.987 93.9089C509.485 93.2645 509.979 92.638 510.47 92.0294C510.97 91.4078 511.358 90.9252 511.632 90.5816L486.458 100.135L482.435 97.1572L498.355 75.6503L501.455 77.9453Z" fill="white"></path> <path d="M533.057 102.388L521.372 114.489C521.145 114.723 520.846 115.022 520.472 115.385C520.11 115.737 519.714 116.112 519.283 116.511C518.864 116.898 518.456 117.273 518.06 117.637C517.686 118 517.369 118.294 517.108 118.517L543.366 112.343L546.948 115.803L528.361 135.051L525.639 132.423L537.035 120.621C537.397 120.246 537.867 119.772 538.444 119.198C539.021 118.624 539.592 118.067 540.158 117.527C540.736 116.976 541.183 116.548 541.5 116.244L515.295 122.434L511.694 118.957L530.282 99.7088L533.057 102.388Z" fill="white"></path> <path d="M584.836 146.546C587.459 150.332 588.63 153.609 588.35 156.378C588.092 159.15 586.585 161.49 583.829 163.4C582.584 164.261 581.256 164.874 579.845 165.238C578.457 165.606 577.019 165.631 575.533 165.315C574.06 164.989 572.561 164.254 571.037 163.112C569.536 161.974 568.044 160.335 566.561 158.194L564.087 154.621L552.547 162.615L550.184 159.203L579.526 138.879L584.836 146.546ZM581.704 148.24L578.979 144.307L567.017 152.592L569.228 155.783C570.525 157.656 571.805 159.076 573.069 160.042C574.341 161.022 575.643 161.516 576.975 161.524C578.321 161.522 579.743 161.003 581.241 159.965C583.195 158.611 584.216 156.984 584.304 155.081C584.405 153.17 583.538 150.889 581.704 148.24Z" fill="white"></path> <path d="M591.808 201.123C589.859 202.138 587.988 202.79 586.194 203.082C584.401 203.373 582.729 203.316 581.179 202.912C579.629 202.507 578.22 201.773 576.95 200.709C575.703 199.652 574.636 198.272 573.749 196.568C572.923 194.98 572.438 193.379 572.295 191.765C572.175 190.158 572.39 188.597 572.94 187.081C573.498 185.579 574.403 184.163 575.656 182.833C576.916 181.516 578.52 180.351 580.469 179.337C583.068 177.984 585.506 177.275 587.784 177.209C590.076 177.135 592.122 177.666 593.924 178.802C595.748 179.944 597.25 181.649 598.43 183.915C599.557 186.081 600.058 188.224 599.932 190.345C599.814 192.48 599.071 194.472 597.703 196.321C596.357 198.177 594.392 199.778 591.808 201.123ZM582.408 183.062C580.502 184.053 578.98 185.166 577.843 186.401C576.705 187.635 576.028 188.978 575.812 190.43C575.595 191.882 575.919 193.439 576.783 195.099C577.639 196.745 578.725 197.896 580.038 198.551C581.36 199.222 582.852 199.445 584.515 199.221C586.179 198.998 587.963 198.39 589.869 197.398C591.761 196.414 593.261 195.312 594.369 194.093C595.492 192.866 596.155 191.531 596.357 190.086C596.559 188.641 596.225 187.082 595.353 185.407C594.068 182.938 592.309 181.551 590.077 181.245C587.852 180.953 585.295 181.559 582.408 183.062Z" fill="white"></path> <path d="M588.18 227.505C587.324 225.253 587.033 223.091 587.307 221.019C587.582 218.947 588.488 217.071 590.025 215.389C591.562 213.708 593.776 212.318 596.667 211.219C599.695 210.068 602.358 209.63 604.656 209.905C606.976 210.19 608.938 211.046 610.543 212.473C612.148 213.9 613.381 215.747 614.243 218.014C614.717 219.262 615.045 220.513 615.226 221.767C615.428 223.031 615.48 224.108 615.383 224.998L611.777 225.063C611.792 224.187 611.731 223.2 611.592 222.104C611.46 221.022 611.229 220.048 610.899 219.181C610.24 217.446 609.318 216.143 608.132 215.27C606.953 214.412 605.531 213.969 603.866 213.941C602.207 213.927 600.32 214.322 598.205 215.126C596.182 215.896 594.559 216.826 593.337 217.917C592.121 219.024 591.341 220.27 590.997 221.654C590.673 223.048 590.827 224.574 591.457 226.233C591.961 227.556 592.552 228.698 593.23 229.659C593.924 230.614 594.626 231.453 595.336 232.176L591.959 233.46C591.215 232.785 590.532 231.974 589.91 231.026C589.295 230.093 588.718 228.92 588.18 227.505Z" fill="white"></path> <path d="M622.402 257.042L620.199 248.509L597.623 254.336L596.623 250.459L619.198 244.632L617.026 236.216L620.359 235.356L625.735 256.182L622.402 257.042Z" fill="white"></path> <path d="M630.83 279.645C631.264 282.806 630.877 285.249 629.669 286.976C628.46 288.703 626.3 289.781 623.188 290.208L605.169 292.685L604.767 289.759L608.579 288.446L608.552 288.252C607.483 287.644 606.562 286.982 605.79 286.266C605.034 285.549 604.414 284.681 603.929 283.663C603.462 282.66 603.124 281.392 602.913 279.86C602.692 278.248 602.777 276.774 603.168 275.439C603.562 274.119 604.281 273.018 605.326 272.135C606.374 271.269 607.776 270.714 609.534 270.473C612.178 270.109 614.354 270.878 616.061 272.779C617.768 274.68 618.981 277.767 619.699 282.038L620.521 286.583L622.142 286.36C624.431 286.045 625.968 285.333 626.752 284.223C627.536 283.113 627.805 281.663 627.559 279.873C627.368 278.487 626.985 277.192 626.409 275.99C625.833 274.788 625.193 273.66 624.49 272.606L627.368 270.954C628.144 272.063 628.857 273.361 629.505 274.85C630.153 276.338 630.595 277.936 630.83 279.645ZM617.685 286.923L616.96 282.907C616.377 279.62 615.516 277.364 614.379 276.14C613.241 274.916 611.802 274.424 610.06 274.664C608.545 274.872 607.487 275.486 606.888 276.504C606.289 277.523 606.093 278.79 606.301 280.306C606.625 282.66 607.543 284.497 609.055 285.818C610.567 287.138 612.63 287.618 615.242 287.259L617.685 286.923Z" fill="white"></path> </svg> 